<svg
	fill="none"
	height="652"
	viewBox="0 0 648 652"
	width="648"
	xmlns="http://www.w3.org/2000/svg"
>
	<path
		d="M323 7C421.583 7 501.5 86.9172 501.5 185.5C501.5 219.945 493.404 251.843 476.862 278.801C475.544 280.359 474.623 282.181 473.988 283.657C473.184 285.529 472.531 287.584 472.038 289.541C471.544 291.502 471.172 293.523 470.982 295.358C470.87 296.445 470.772 297.882 470.902 299.346C465.91 324.253 446.407 340.382 418.679 350.443C390.537 360.655 355.364 364 323 364C291.232 364 257.63 360.481 230.138 350.19C203.037 340.047 182.752 323.706 174.988 298.43C174.929 295.641 174.53 289.434 171.835 280.894C171.704 280.478 171.535 280.076 171.329 279.692L171.111 279.315L170.326 278.034C153.938 251.056 144.5 219.39 144.5 185.5C144.5 86.9172 224.417 7 323 7Z"
		fill="#70CCC1"
		stroke-linejoin="round"
		stroke-width="14"
		stroke="black"
	/>
	<ellipse cx="236.5" cy="222" rx="27.5" ry="37" fill="black" />
	<ellipse cx="243.5" cy="211" rx="8.5" ry="9" fill="#FFF9E9" />
	<ellipse cx="414.5" cy="222" rx="27.5" ry="37" fill="black" />
	<ellipse cx="421.5" cy="211" rx="8.5" ry="9" fill="#FFF9E9" />
	<path
		d="M296 252.5C314 278 341.5 272.5 352.5 252.5"
		stroke-linecap="round"
		stroke-linejoin="round"
		stroke-width="14"
		stroke="black"
	/>
	<path
		d="M64.6539 527.277C79.7169 527.343 99.9916 511.03 99.9916 511.03L156.09 533.312C156.09 533.312 121.194 586.698 64.6539 581.127C8.11351 575.556 0.295237 515.16 11.2056 493.854C13.6538 489.073 16.1063 487.802 18.4848 487.438C31.7364 483.668 34.0428 505.302 37.2671 511.03C43.6889 522.437 50.5077 527.216 64.6539 527.277Z"
		fill="#70CCC1"
	/>
	<path
		d="M152.768 535.466L123.614 566.356C123.614 566.356 128.032 549.644 116.105 538.503C102.493 525.786 88.7184 522.719 88.7184 522.719L101.031 510.649L152.768 535.466Z"
		fill="#449284"
		fill-opacity="0.8"
	/>
	<path
		d="M64.6539 527.277C79.7169 527.343 99.9916 511.03 99.9916 511.03L156.09 533.312C156.09 533.312 121.194 586.698 64.6539 581.127C8.11351 575.556 0.295237 515.16 11.2056 493.854C13.6538 489.073 16.1063 487.802 18.4848 487.438C31.7364 483.668 34.0428 505.302 37.2671 511.03C43.6889 522.437 50.5077 527.216 64.6539 527.277Z"
		stroke="black"
		stroke-width="14"
		stroke-linecap="round"
		stroke-linejoin="round"
	/>
	<path
		d="M147.467 577.497C157.744 563.58 164.695 536.181 164.695 536.181L226.536 552.429C226.536 552.429 218.143 588.82 185.014 606.743C151.885 624.665 87.3933 625.776 83.8595 611.849C80.3257 597.923 136.363 592.535 147.467 577.497Z"
		fill="#70CCC1"
	/>
	<path
		d="M190.756 560.785C174.137 554.714 164.102 551.612 164.102 551.612L160.719 535.253L230.511 551.612L225.21 560.785L211.252 577.33C211.252 577.33 205.317 566.104 190.756 560.785Z"
		fill="#449284"
		fill-opacity="0.8"
	/>
	<path
		d="M147.467 577.497C157.744 563.58 164.695 536.181 164.695 536.181L226.536 552.429C226.536 552.429 218.143 588.82 185.014 606.743C151.885 624.665 86.9516 626.24 83.4178 612.314C79.884 598.387 136.363 592.535 147.467 577.497Z"
		stroke="black"
		stroke-width="14"
		stroke-linecap="round"
		stroke-linejoin="round"
	/>
	<path
		d="M234.774 601.391C245.051 587.474 252.001 560.076 252.001 560.076L313.842 576.323C313.842 576.323 305.45 612.714 272.321 630.637C239.191 648.56 200.762 648.277 197.228 634.351C193.694 620.424 223.669 616.429 234.774 601.391Z"
		fill="#70CCC1"
	/>
	<path
		d="M281.309 583.068C264.69 576.996 251.409 575.506 251.409 575.506L248.026 559.147L317.818 575.506L312.517 584.679L302.953 596.994C302.953 596.994 295.87 588.387 281.309 583.068Z"
		fill="#449284"
		fill-opacity="0.8"
	/>
	<path
		d="M234.774 601.391C245.051 587.474 252.001 560.076 252.001 560.076L313.842 576.323C313.842 576.323 305.45 612.714 272.321 630.637C239.191 648.56 200.762 648.277 197.228 634.351C193.694 620.424 223.669 616.429 234.774 601.391Z"
		stroke="black"
		stroke-width="14"
		stroke-linecap="round"
		stroke-linejoin="round"
	/>
	<path
		d="M583.346 527.277C568.283 527.343 548.008 511.03 548.008 511.03L491.91 533.312C491.91 533.312 526.806 586.698 583.346 581.127C639.886 575.556 647.705 515.16 636.794 493.854C634.346 489.073 631.894 487.802 629.515 487.438C616.264 483.668 613.957 505.302 610.733 511.03C604.311 522.437 597.492 527.216 583.346 527.277Z"
		fill="#70CCC1"
	/>
	<path
		d="M491 531.816L520.154 562.706C520.154 562.706 515.736 545.994 527.663 534.853C541.275 522.137 555.05 519.07 555.05 519.07L542.737 507L491 531.816Z"
		fill="#449284"
		fill-opacity="0.8"
	/>
	<path
		d="M583.346 527.277C568.283 527.343 548.008 511.03 548.008 511.03L491.91 533.312C491.91 533.312 526.806 586.698 583.346 581.127C639.886 575.556 647.705 515.16 636.794 493.854C634.346 489.073 631.894 487.802 629.515 487.438C616.264 483.668 613.957 505.302 610.733 511.03C604.311 522.437 597.492 527.216 583.346 527.277Z"
		stroke="black"
		stroke-width="14"
		stroke-linecap="round"
		stroke-linejoin="round"
	/>
	<path
		d="M500.533 577.497C490.256 563.58 483.305 536.181 483.305 536.181L421.464 552.429C421.464 552.429 429.857 588.82 462.986 606.743C496.115 624.665 560.607 625.776 564.14 611.849C567.674 597.923 511.637 592.535 500.533 577.497Z"
		fill="#70CCC1"
	/>
	<path
		d="M452.5 560.785C468.756 551.612 487.281 543.5 487.281 543.5L487.281 535.253L417.489 551.612L422.79 560.785L435 575C435 575 438.985 568.411 452.5 560.785Z"
		fill="#449284"
		fill-opacity="0.8"
	/>
	<path
		d="M500.533 577.497C490.256 563.58 483.305 536.181 483.305 536.181L421.464 552.429C421.464 552.429 429.857 588.82 462.986 606.743C496.115 624.665 561.048 626.24 564.582 612.314C568.116 598.387 511.637 592.535 500.533 577.497Z"
		stroke="black"
		stroke-width="14"
		stroke-linecap="round"
		stroke-linejoin="round"
	/>
	<path
		d="M413.226 601.391C402.949 587.474 395.999 560.076 395.999 560.076L334.158 576.323C334.158 576.323 342.55 612.714 375.679 630.637C408.809 648.56 447.238 648.277 450.772 634.351C454.306 620.424 424.331 616.429 413.226 601.391Z"
		fill="#70CCC1"
	/>
	<path
		d="M366.691 587.068C383.31 580.996 396.591 579.506 396.591 579.506L399.974 563.147L330.182 579.506L335.483 588.679L345.047 600.994C345.047 600.994 352.13 592.387 366.691 587.068Z"
		fill="#449284"
		fill-opacity="0.8"
	/>
	<path
		d="M413.226 601.391C402.949 587.474 395.999 560.076 395.999 560.076L334.158 576.323C334.158 576.323 342.55 612.714 375.679 630.637C408.809 648.56 447.238 648.277 450.772 634.351C454.306 620.424 424.331 616.429 413.226 601.391Z"
		stroke="black"
		stroke-width="14"
		stroke-linecap="round"
		stroke-linejoin="round"
	/>
	<path
		d="M571.96 271.783C574.351 271.107 576.929 271.659 578.836 273.268C580.805 274.929 581.783 277.485 581.428 280.036L549.428 509.536C549.04 512.313 547.137 514.641 544.493 515.573L352.993 583.073C351.714 583.524 350.336 583.62 349.007 583.35L221.007 557.35C220.659 557.279 220.316 557.184 219.981 557.064L104.981 516.064C102.428 515.154 100.571 512.941 100.11 510.283L100.07 510.024L68.5703 281.524C68.2175 278.965 69.2068 276.404 71.1885 274.747C73.1702 273.09 75.8657 272.568 78.3223 273.368L206.759 315.185L359.42 339.314L571.729 271.853L571.96 271.783Z"
		fill="#EED5AF"
		stroke="black"
		stroke-width="15"
		stroke-linejoin="round"
	/>
	<mask
		id="mask0_8_107"
		style="mask-type: alpha"
		maskUnits="userSpaceOnUse"
		x="76"
		y="279"
		width="498"
		height="297"
	>
		<path
			d="M205 322.5L76 280.5L107.5 509L222.5 550L350.5 576L542 508.5L574 279L360 347L205 322.5Z"
			fill="#EED5AF"
		/>
	</mask>
	<g mask="url(#mask0_8_107)">
		<path
			d="M367 344L355 345L346 577L350.5 578.5L358 575L367 344Z"
			fill="#A79168"
		/>
		<path
			d="M217 549L198 319.5L212.5 323L229.5 551.5L217 549Z"
			fill="#A79168"
		/>
	</g>
	<path
		d="M149 383L174 385.5"
		stroke="black"
		stroke-width="13"
		stroke-linecap="round"
		stroke-linejoin="round"
	/>
	<path
		d="M197 386L210.5 389L224 394"
		stroke="black"
		stroke-width="13"
		stroke-linecap="round"
		stroke-linejoin="round"
	/>
	<path
		d="M244.968 406L253.514 414.572L261 425"
		stroke="black"
		stroke-width="13"
		stroke-linecap="round"
		stroke-linejoin="round"
	/>
	<path
		d="M281.163 471.436L274.547 461.3L269.347 449.564"
		stroke="black"
		stroke-width="13"
		stroke-linecap="round"
		stroke-linejoin="round"
	/>
	<path
		d="M315.582 500.205L307.703 496.905L300 492"
		stroke="black"
		stroke-width="13"
		stroke-linecap="round"
		stroke-linejoin="round"
	/>
	<path
		d="M342 507L361 507"
		stroke="black"
		stroke-width="13"
		stroke-linecap="round"
		stroke-linejoin="round"
	/>
	<path
		d="M424.398 475.54L440.204 464.997"
		stroke="black"
		stroke-width="13"
		stroke-linecap="round"
		stroke-linejoin="round"
	/>
	<path
		d="M402.017 490.886L395.153 495.971L387 500.084"
		stroke="black"
		stroke-width="13"
		stroke-linecap="round"
		stroke-linejoin="round"
	/>
	<path
		d="M453.872 352.75C457.562 352.532 461.216 353.573 464.237 355.703C467.258 357.833 469.466 360.925 470.503 364.474C471.54 368.023 471.343 371.82 469.946 375.243C468.915 377.767 467.275 379.975 465.193 381.687C466.828 384.529 469.075 386.984 471.785 388.862C475.168 391.206 479.136 392.561 483.244 392.776L489.428 393.1C490.98 390.422 493.267 388.226 496.039 386.787C499.46 385.011 503.398 384.503 507.157 385.353C510.916 386.203 514.252 388.356 516.577 391.43C518.903 394.505 520.067 398.302 519.866 402.152C519.664 406.002 518.109 409.658 515.475 412.472C512.841 415.286 509.298 417.079 505.471 417.531C501.644 417.984 497.78 417.067 494.564 414.943C491.957 413.222 489.911 410.798 488.648 407.973L482.464 407.649L482.464 407.648C477.314 407.384 472.276 406.046 467.675 403.716C465.181 402.453 462.847 400.911 460.71 399.13L460.079 411.169C462.754 412.721 464.947 415.011 466.382 417.785C468.154 421.207 468.659 425.145 467.81 428.904C466.961 432.663 464.812 436.002 461.742 438.329C458.672 440.656 454.878 441.823 451.031 441.621C447.184 441.42 443.533 439.863 440.723 437.227C437.913 434.592 436.125 431.047 435.674 427.22C435.222 423.393 436.137 419.529 438.256 416.311C439.974 413.702 442.394 411.654 445.216 410.39L446.641 383.194C444.099 381.718 441.989 379.577 440.553 376.981C438.763 373.746 438.122 369.999 438.734 366.352C439.347 362.706 441.178 359.375 443.927 356.904C446.677 354.433 450.183 352.968 453.872 352.75ZM451.961 423.863C451.581 423.843 451.208 423.975 450.923 424.231C450.639 424.487 450.467 424.847 450.446 425.232C450.426 425.616 450.56 425.992 450.816 426.277C451.072 426.561 451.429 426.732 451.81 426.752C452.191 426.772 452.565 426.64 452.849 426.383C453.134 426.127 453.306 425.767 453.326 425.382L453.327 425.24C453.311 424.906 453.181 424.587 452.957 424.337C452.7 424.053 452.342 423.883 451.961 423.863ZM503.488 399.852C503.157 399.867 502.84 399.997 502.591 400.221C502.307 400.478 502.135 400.838 502.115 401.222C502.094 401.606 502.228 401.982 502.484 402.267C502.74 402.552 503.098 402.722 503.478 402.742C503.859 402.762 504.233 402.63 504.517 402.374C504.802 402.117 504.974 401.757 504.994 401.373C505.014 400.989 504.881 400.613 504.625 400.328C504.369 400.043 504.01 399.872 503.63 399.852L503.488 399.852ZM454.907 367.627C454.526 367.608 454.153 367.741 453.869 367.997C453.585 368.254 453.414 368.613 453.393 368.997L453.393 369.14C453.408 369.473 453.538 369.792 453.762 370.041C454.018 370.326 454.375 370.496 454.755 370.517C455.136 370.537 455.51 370.406 455.794 370.151C456.079 369.895 456.252 369.536 456.273 369.153L456.274 369.143L456.273 368.999C456.257 368.667 456.126 368.348 455.902 368.1C455.645 367.816 455.287 367.647 454.907 367.627Z"
		fill="#8250DF"
		stroke="black"
		stroke-width="6"
		stroke-linejoin="round"
	/>
	<path
		d="M33.1029 411.5C36.0606 369.5 56.0002 364.5 75.5002 362C85.5506 360.711 115.5 362 115.5 389.5C115.5 413 90.3306 414.835 85 417.5C74 423 86.6029 427.5 86.6029 427.5C86.6029 427.5 93.3972 458.5 90 459.5C86.6028 460.5 30.1451 453.5 33.1029 411.5Z"
		fill="#70CCC1"
		stroke="black"
		stroke-width="14"
		stroke-linecap="round"
		stroke-linejoin="round"
	/>
	<path
		d="M615.397 406.826C612.439 364.826 592.5 359.826 573 357.326C562.949 356.038 533 357.326 533 384.826C533 408.326 558.169 410.161 563.5 412.826C574.5 418.326 561.897 422.826 561.897 422.826C561.897 422.826 555.103 453.826 558.5 454.826C561.897 455.826 618.355 448.826 615.397 406.826Z"
		fill="#70CCC1"
		stroke="black"
		stroke-width="14"
		stroke-linecap="round"
		stroke-linejoin="round"
	/>
</svg>
